<svg id="Layer_1" data-name="Layer 1" xmlns="http://www.w3.org/2000/svg" viewBox="0 0 61.11 59.32"><defs><style>.cls-1{fill:#707373;}.cls-2{fill:#666;}.cls-3{fill:#3e8963;}</style></defs><path class="cls-1" d="M16.29,25.42H12.13A18.54,18.54,0,0,1,48,20.36a2.11,2.11,0,0,0,4-1.47A22.75,22.75,0,0,0,7.87,26.55a8.43,8.43,0,0,0-4.22,7.3V41a8.44,8.44,0,0,0,8.43,8.43h4.21a2.11,2.11,0,0,0,2.11-2.11V27.53A2.1,2.1,0,0,0,16.29,25.42Zm-2.1,19.8H12.08A4.22,4.22,0,0,1,7.87,41V33.85a4.22,4.22,0,0,1,4.21-4.22h2.11Z"/><path class="cls-2" d="M49.16,25.42H44.94a2.1,2.1,0,0,0-2.1,2.11v22a2.12,2.12,0,0,1-2.11,2.11H34.31v.06a4.22,4.22,0,1,0,0,4.08v.07h6.42a6.32,6.32,0,0,0,6.32-6.32v-.1h2.11A8.44,8.44,0,0,0,57.59,41V33.85A8.44,8.44,0,0,0,49.16,25.42ZM53.37,41a4.22,4.22,0,0,1-4.21,4.21H47.05V29.63h2.11a4.22,4.22,0,0,1,4.21,4.22Z"/><circle class="cls-3" cx="30.65" cy="53.96" r="4.74"/></svg>