<?xml version="1.0" encoding="utf-8"?>
<!-- Generator: Adobe Illustrator 25.2.1, SVG Export Plug-In . SVG Version: 6.00 Build 0)  -->
<svg version="1.1" id="Layer_1" xmlns="http://www.w3.org/2000/svg" xmlns:xlink="http://www.w3.org/1999/xlink" x="0px" y="0px"
	 viewBox="0 0 87 87" style="enable-background:new 0 0 87 87;" xml:space="preserve">
<style type="text/css">
	.st0{fill:#078C61;}
	.st1{fill:#FFFFFF;}
</style>
<g>
	<path class="st0" d="M50.9,9.7H30.3C18.9,9.7,9.6,19,9.6,30.5v20.6c0,11.6,9.4,21,21,21h41.4V30.6C71.9,19.1,62.5,9.7,50.9,9.7z"/>
</g>
<g>
	<g>
		<g>
			<g>
				<path class="st1" d="M47.9,45.8c-0.5,0-0.9,0.4-0.9,0.9v6c0,2.4-1.9,4.3-4.3,4.3h-9.4c-0.5,0-0.9,0.4-0.9,0.9l0,1.7l-2.1-2.1
					C30.3,57.2,30,57,29.6,57H24c-2.4,0-4.3-1.9-4.3-4.3V39.3c0-2.4,1.9-4.3,4.3-4.3h8.8c0.5,0,0.9-0.4,0.9-0.9s-0.4-0.9-0.9-0.9H24
					c-3.3,0-6.1,2.7-6.1,6.1v13.4c0,3.3,2.7,6.1,6.1,6.1h5.2l3.6,3.6c0.2,0.2,0.4,0.3,0.6,0.3c0.1,0,0.2,0,0.3-0.1
					c0.3-0.1,0.5-0.5,0.5-0.8l0-2.9h8.5c3.3,0,6.1-2.7,6.1-6.1v-6C48.8,46.2,48.4,45.8,47.9,45.8z"/>
			</g>
		</g>
	</g>
	<g>
		<g>
			<g>
				<path class="st1" d="M49.7,18.1h-2.2c-6.9,0-12.6,5.7-12.6,12.6s5.7,12.6,12.6,12.6h2.2c1.1,0,2.2-0.1,3.2-0.4l3.2,3.2
					c0.2,0.2,0.4,0.3,0.6,0.3c0.1,0,0.2,0,0.3-0.1c0.3-0.1,0.5-0.5,0.5-0.8v-5c1.4-1.1,2.5-2.5,3.3-4.1c0.9-1.8,1.4-3.7,1.4-5.7
					C62.3,23.8,56.7,18.1,49.7,18.1z M56.2,39.4c-0.2,0.2-0.3,0.4-0.3,0.7v3.3l-2.1-2.1c-0.2-0.2-0.4-0.3-0.6-0.3
					c-0.1,0-0.2,0-0.3,0c-1,0.3-2.1,0.5-3.2,0.5h-2.2c-6,0-10.9-4.9-10.9-10.9s4.9-10.9,10.9-10.9h2.2c6,0,10.9,4.9,10.9,10.9
					C60.6,34.2,59,37.3,56.2,39.4z"/>
			</g>
		</g>
	</g>
	<g>
		<g>
			<g>
				<path class="st1" d="M45.2,27.6c0.1-1.8,1.6-3.3,3.4-3.4c1-0.1,2,0.3,2.8,1c0.7,0.7,1.2,1.7,1.2,2.7c0,0.5-0.4,0.9-0.9,0.9
					c-0.5,0-0.9-0.4-0.9-0.9c0-0.5-0.2-1-0.6-1.4c-0.4-0.4-0.9-0.6-1.5-0.5c-1,0.1-1.7,0.8-1.8,1.8c-0.1,1,0.6,1.8,1.5,2
					c0.8,0.2,1.3,0.8,1.3,1.6v2.1c0,0.5-0.4,0.9-0.9,0.9c-0.5,0-0.9-0.4-0.9-0.9v-2C46.2,31,45.1,29.4,45.2,27.6z"/>
			</g>
		</g>
	</g>
	<g>
		<g>
			<g>
				<path class="st1" d="M48.2,36.3c0.2-0.2,0.4-0.3,0.6-0.3s0.5,0.1,0.6,0.3c0.2,0.2,0.3,0.4,0.3,0.6c0,0.2-0.1,0.5-0.3,0.6
					c-0.2,0.2-0.4,0.3-0.6,0.3s-0.5-0.1-0.6-0.3c-0.2-0.2-0.3-0.4-0.3-0.6C48,36.7,48.1,36.4,48.2,36.3z"/>
			</g>
		</g>
	</g>
	<g>
		<g>
			<g>
				<path class="st1" d="M41.8,45H23.5c-0.5,0-0.9,0.4-0.9,0.9c0,0.5,0.4,0.9,0.9,0.9h18.3c0.5,0,0.9-0.4,0.9-0.9
					C42.6,45.4,42.2,45,41.8,45z"/>
			</g>
		</g>
	</g>
	<g>
		<g>
			<g>
				<path class="st1" d="M42.4,50.1c-0.2-0.2-0.4-0.3-0.6-0.3s-0.5,0.1-0.6,0.3c-0.2,0.2-0.3,0.4-0.3,0.6s0.1,0.5,0.3,0.6
					c0.2,0.2,0.4,0.3,0.6,0.3s0.5-0.1,0.6-0.3c0.2-0.2,0.3-0.4,0.3-0.6C42.6,50.5,42.5,50.3,42.4,50.1z"/>
			</g>
		</g>
	</g>
	<g>
		<g>
			<g>
				<path class="st1" d="M38.3,49.9H23.5c-0.5,0-0.9,0.4-0.9,0.9c0,0.5,0.4,0.9,0.9,0.9h14.9c0.5,0,0.9-0.4,0.9-0.9
					C39.2,50.2,38.8,49.9,38.3,49.9z"/>
			</g>
		</g>
	</g>
	<g>
		<g>
			<g>
				<path class="st1" d="M36.1,40.1H23.5c-0.5,0-0.9,0.4-0.9,0.9s0.4,0.9,0.9,0.9h12.7c0.5,0,0.9-0.4,0.9-0.9S36.6,40.1,36.1,40.1z"
					/>
			</g>
		</g>
	</g>
</g>
</svg>
