<svg id="Layer_1" data-name="Layer 1" xmlns="http://www.w3.org/2000/svg" viewBox="0 0 61.11 59.32"><defs><style>.cls-1{fill:#666;}.cls-2{fill:#707373;}.cls-3{fill:#3e8963;}</style></defs><path class="cls-1" d="M33.84,34.76,57.11,47.37V22.16Z"/><path class="cls-2" d="M4,48.3a1.56,1.56,0,0,0,1.56,1.56h20l3.7,5.75a1.57,1.57,0,0,0,2.63,0l3.7-5.75H55.15L4,22.16Z"/><path class="cls-1" d="M50.86,16.22V22l4.77-2.59Z"/><path class="cls-1" d="M31.42,3.26a1.56,1.56,0,0,0-1.73,0L23.83,7.17H37.28Z"/><path class="cls-1" d="M10.25,16.22,5.48,19.4,10.25,22Z"/><path class="cls-3" d="M47.74,23.68V11.85a1.56,1.56,0,0,0-1.56-1.56H14.93a1.56,1.56,0,0,0-1.56,1.56V23.68L30.56,33Z"/></svg>