<svg id="Layer_1" data-name="Layer 1" xmlns="http://www.w3.org/2000/svg" viewBox="0 0 61.11 59.32"><defs><style>.cls-1{fill:#666;}.cls-2{fill:#3e8963;}</style></defs><path class="cls-1" d="M32,2.4A25.48,25.48,0,0,0,10,40.89l-3.5,10.6a1.5,1.5,0,0,0,1.91,1.88L18.9,49.78A25.5,25.5,0,1,0,32,2.4Zm0,48.06a22.54,22.54,0,0,1-12.07-3.59,1.5,1.5,0,0,0-1.29-.15l-8.3,2.85,2.77-8.4a1.5,1.5,0,0,0-.16-1.27A22.51,22.51,0,1,1,32,50.46Z"/><path class="cls-2" d="M31.84,10.33a9.36,9.36,0,0,0-9.35,9.35,4.06,4.06,0,1,0,8.12,0,1.23,1.23,0,0,1,1.23-1.23,1.49,1.49,0,0,1,1.48,1.48v.29a1.45,1.45,0,0,1-.44,1l-3,3a6.73,6.73,0,0,0-2,4.79v1.58a4.06,4.06,0,1,0,8.12,0v-1L38.62,27a9.5,9.5,0,0,0,2.82-6.78A9.61,9.61,0,0,0,31.84,10.33Zm4.87,14.76-3,3a1.36,1.36,0,0,0-.39,1v1.58a1.36,1.36,0,1,1-2.71,0V29.05a4,4,0,0,1,1.19-2.87l3-3a4.15,4.15,0,0,0,1.22-3v-.29a4.18,4.18,0,0,0-4.18-4.18,3.94,3.94,0,0,0-3.94,3.93,1.35,1.35,0,1,1-2.7,0A6.65,6.65,0,0,1,31.84,13a6.9,6.9,0,0,1,6.89,7.18A6.85,6.85,0,0,1,36.71,25.09Z"/><path class="cls-2" d="M32,37.4A4.06,4.06,0,1,0,36,41.46,4.07,4.07,0,0,0,32,37.4Zm0,5.41a1.36,1.36,0,1,1,1.36-1.35A1.36,1.36,0,0,1,32,42.81Z"/></svg>